<?xml version="1.0" encoding="UTF-8" standalone="no"?>
<!-- Uploaded to: SVG Repo, www.svgrepo.com, Generator: SVG Repo Mixer Tools -->

<svg
   fill="#000000"
   width="100"
   height="100"
   viewBox="0 0 3 3"
   version="1.1"
   id="svg1"
   xml:space="preserve"
   xmlns="http://www.w3.org/2000/svg"
   xmlns:svg="http://www.w3.org/2000/svg"><defs
     id="defs1" /><g
     style="display:none;fill:#ffffff"
     id="g1"
     transform="matrix(0.13636364,0,0,0.13636364,-0.13636364,-0.13636364)"><path
       fill-rule="evenodd"
       clip-rule="evenodd"
       d="m 12,18 c 3.3137,0 6,-2.6863 6,-6 0,-3.31371 -2.6863,-6 -6,-6 -3.31371,0 -6,2.68629 -6,6 0,3.3137 2.68629,6 6,6 z m 0,-2 c 2.2091,0 4,-1.7909 4,-4 0,-2.20914 -1.7909,-4 -4,-4 -2.20914,0 -4,1.79086 -4,4 0,2.2091 1.79086,4 4,4 z"
       fill="#0f0f0f"
       id="path1-3"
       style="fill:#ffffff" /><path
       d="m 18,5 c -0.5523,0 -1,0.44772 -1,1 0,0.55228 0.4477,1 1,1 0.5523,0 1,-0.44772 1,-1 0,-0.55228 -0.4477,-1 -1,-1 z"
       fill="#0f0f0f"
       id="path2"
       style="fill:#ffffff" /><path
       fill-rule="evenodd"
       clip-rule="evenodd"
       d="M 1.65396,4.27606 C 1,5.55953 1,7.23969 1,10.6 v 2.8 c 0,3.3603 0,5.0405 0.65396,6.3239 0.57524,1.129 1.49312,2.0469 2.6221,2.6221 C 5.55953,23 7.23969,23 10.6,23 h 2.8 c 3.3603,0 5.0405,0 6.3239,-0.654 1.129,-0.5752 2.0469,-1.4931 2.6221,-2.6221 C 23,18.4405 23,16.7603 23,13.4 V 10.6 C 23,7.23969 23,5.55953 22.346,4.27606 21.7708,3.14708 20.8529,2.2292 19.7239,1.65396 18.4405,1 16.7603,1 13.4,1 H 10.6 C 7.23969,1 5.55953,1 4.27606,1.65396 3.14708,2.2292 2.2292,3.14708 1.65396,4.27606 Z M 13.4,3 H 10.6 C 8.88684,3 7.72225,3.00156 6.82208,3.0751 5.94524,3.14674 5.49684,3.27659 5.18404,3.43597 4.43139,3.81947 3.81947,4.43139 3.43597,5.18404 3.27659,5.49684 3.14674,5.94524 3.0751,6.82208 3.00156,7.72225 3,8.88684 3,10.6 v 2.8 c 0,1.7132 0.00156,2.8777 0.0751,3.7779 0.07164,0.8769 0.20149,1.3253 0.36087,1.6381 0.3835,0.7526 0.99542,1.3645 1.74807,1.748 0.3128,0.1594 0.7612,0.2893 1.63804,0.3609 C 7.72225,20.9984 8.88684,21 10.6,21 h 2.8 c 1.7132,0 2.8777,-0.0016 3.7779,-0.0751 0.8769,-0.0716 1.3253,-0.2015 1.6381,-0.3609 0.7526,-0.3835 1.3645,-0.9954 1.748,-1.748 0.1594,-0.3128 0.2893,-0.7612 0.3609,-1.6381 C 20.9984,16.2777 21,15.1132 21,13.4 V 10.6 C 21,8.88684 20.9984,7.72225 20.9249,6.82208 20.8533,5.94524 20.7234,5.49684 20.564,5.18404 20.1805,4.43139 19.5686,3.81947 18.816,3.43597 18.5032,3.27659 18.0548,3.14674 17.1779,3.0751 16.2777,3.00156 15.1132,3 13.4,3 Z"
       fill="#0f0f0f"
       id="path3"
       style="fill:#ffffff" /></g><g
     style="display:inline;fill:#ffffff"
     id="g2"
     transform="matrix(0.1999966,0,0,0.1999966,-0.10782067,-0.09994731)"><path
       d="M 11.42,9.49 C 11.23,9.4 10.32,8.95 10.15,8.88 9.98,8.81 9.86,8.79 9.73,8.98 9.6,9.17 9.25,9.58 9.14,9.71 9.03,9.84 8.93,9.85 8.74,9.71 A 5.13,5.13 0 0 1 7.25,8.79 5.25,5.25 0 0 1 6.25,7.5 C 6.14,7.32 6.25,7.22 6.33,7.12 6.41,7.02 6.51,6.91 6.61,6.8 a 1.39,1.39 0 0 0 0.18,-0.31 0.38,0.38 0 0 0 0,-0.33 C 6.79,6.07 6.37,5.16 6.21,4.79 6.05,4.42 5.91,4.47 5.8,4.47 H 5.4 A 0.72,0.72 0 0 0 4.9,4.7 2.1,2.1 0 0 0 4.25,6.25 3.59,3.59 0 0 0 5,8.2 8.32,8.32 0 0 0 8.19,11 c 0.44,0.19 0.78,0.3 1.05,0.39 a 2.53,2.53 0 0 0 1.17,0.07 1.93,1.93 0 0 0 1.26,-0.88 1.67,1.67 0 0 0 0.11,-0.88 C 11.73,9.63 11.61,9.58 11.42,9.49 Z"
       id="path1-6"
       style="display:inline;fill:#ffffff" /><path
       d="M 13.29,2.68 A 7.36,7.36 0 0 0 8,0.5 7.44,7.44 0 0 0 1.59,11.65 l -1,3.85 3.94,-1 a 7.4,7.4 0 0 0 3.55,0.9 H 8 A 7.44,7.44 0 0 0 13.29,2.68 Z M 8,14.12 A 6.12,6.12 0 0 1 4.85,13.25 L 4.63,13.12 2.29,13.73 2.91,11.45 2.77,11.22 A 6.18,6.18 0 0 1 12.37,3.57 6.12,6.12 0 0 1 14.18,7.94 6.19,6.19 0 0 1 8,14.12 Z"
       id="path2-7"
       style="display:inline;fill:#ffffff" /></g><path
     d="M 1.4999981,0.00600191 C 0.67499915,0.00600191 0,0.6795013 0,1.5090032 0,2.2590019 0.54899927,2.8815018 1.2659983,2.9940012 V 1.9440024 H 0.88499889 V 1.5090032 H 1.2659983 v -0.331503 c 0,-0.3764994 0.2234998,-0.58349898 0.5669994,-0.58349898 0.1634997,0 0.3344995,0.0284967 0.3344995,0.0284967 V 0.99299804 H 1.9784975 c -0.1859998,0 -0.2444997,0.11549946 -0.2444997,0.23400196 v 0.282 h 0.4169995 l -0.0675,0.4349994 H 1.7339978 V 2.9939981 C 2.0874574,2.938169 2.409327,2.7578234 2.6414817,2.4854988 2.8736364,2.2131889 3.0008063,1.8668394 2.9999962,1.509 c 0,-0.82950178 -0.6749991,-1.50300117 -1.4999981,-1.50300117 z"
     id="path1"
     style="display:none;fill:#ffffff;stroke-width:0.15" /></svg>
