<svg width="1389" height="1090" viewBox="0 0 1389 1090" fill="none" xmlns="http://www.w3.org/2000/svg">
<g opacity="0.35" filter="url(#filter0_f_35_31)">
<g clip-path="url(#paint0_diamond_35_31_clip_path)" data-figma-skip-parse="true"><g transform="matrix(-1.18163 0.821338 -0.972783 -1.30855 1314.76 1017.55)"><rect x="0" y="0" width="1215.53" height="1041.26" fill="url(#paint0_diamond_35_31)" opacity="1" shape-rendering="crispEdges"/><rect x="0" y="0" width="1215.53" height="1041.26" transform="scale(1 -1)" fill="url(#paint0_diamond_35_31)" opacity="1" shape-rendering="crispEdges"/><rect x="0" y="0" width="1215.53" height="1041.26" transform="scale(-1 1)" fill="url(#paint0_diamond_35_31)" opacity="1" shape-rendering="crispEdges"/><rect x="0" y="0" width="1215.53" height="1041.26" transform="scale(-1)" fill="url(#paint0_diamond_35_31)" opacity="1" shape-rendering="crispEdges"/></g></g><path d="M104.678 527.064C57.1906 -84.5839 520.137 -209.867 757.546 -196.053C1290.95 -37.3021 2386.29 284.713 2500.39 302.764C2614.5 320.814 2382.5 1544.69 2252.24 2154.37C1455.86 2196.95 -69.0265 2129.2 202.478 1517.58C321.922 1248.51 511.395 1082.95 710.237 985.144C403.885 979.879 131.313 870.137 104.678 527.064Z" data-figma-gradient-fill="{&#34;type&#34;:&#34;GRADIENT_DIAMOND&#34;,&#34;stops&#34;:[{&#34;color&#34;:{&#34;r&#34;:0.13725490868091583,&#34;g&#34;:0.13725490868091583,&#34;b&#34;:0.13725490868091583,&#34;a&#34;:1.0},&#34;position&#34;:0.0},{&#34;color&#34;:{&#34;r&#34;:0.21568627655506134,&#34;g&#34;:0.21960784494876862,&#34;b&#34;:0.78431373834609985,&#34;a&#34;:1.0},&#34;position&#34;:0.21599975228309631},{&#34;color&#34;:{&#34;r&#34;:0.21960784494876862,&#34;g&#34;:0.78431373834609985,&#34;b&#34;:0.44313725829124451,&#34;a&#34;:1.0},&#34;position&#34;:1.0}],&#34;stopsVar&#34;:[{&#34;color&#34;:{&#34;r&#34;:0.13725490868091583,&#34;g&#34;:0.13725490868091583,&#34;b&#34;:0.13725490868091583,&#34;a&#34;:1.0},&#34;position&#34;:0.0},{&#34;color&#34;:{&#34;r&#34;:0.21568627655506134,&#34;g&#34;:0.21960784494876862,&#34;b&#34;:0.78431373834609985,&#34;a&#34;:1.0},&#34;position&#34;:0.21599975228309631},{&#34;color&#34;:{&#34;r&#34;:0.21960784494876862,&#34;g&#34;:0.78431373834609985,&#34;b&#34;:0.44313725829124451,&#34;a&#34;:1.0},&#34;position&#34;:1.0}],&#34;transform&#34;:{&#34;m00&#34;:-2363.2658691406250,&#34;m01&#34;:-1945.5667724609375,&#34;m02&#34;:3469.1770019531250,&#34;m10&#34;:1642.6761474609375,&#34;m11&#34;:-2617.0944824218750,&#34;m12&#34;:1504.7589111328125},&#34;opacity&#34;:1.0,&#34;blendMode&#34;:&#34;NORMAL&#34;,&#34;visible&#34;:true}"/>
<path d="M104.678 527.064C57.1906 -84.5839 520.137 -209.867 757.546 -196.053C1290.95 -37.3021 2386.29 284.713 2500.39 302.764C2614.5 320.814 2382.5 1544.69 2252.24 2154.37C1455.86 2196.95 -69.0265 2129.2 202.478 1517.58C321.922 1248.51 511.395 1082.95 710.237 985.144C403.885 979.879 131.313 870.137 104.678 527.064Z" stroke="black"/>
</g>
<defs>
<filter id="filter0_f_35_31" x="0.786255" y="-297.543" width="2630.74" height="2562.66" filterUnits="userSpaceOnUse" color-interpolation-filters="sRGB">
<feFlood flood-opacity="0" result="BackgroundImageFix"/>
<feBlend mode="normal" in="SourceGraphic" in2="BackgroundImageFix" result="shape"/>
<feGaussianBlur stdDeviation="50" result="effect1_foregroundBlur_35_31"/>
</filter>
<clipPath id="paint0_diamond_35_31_clip_path"><path d="M104.678 527.064C57.1906 -84.5839 520.137 -209.867 757.546 -196.053C1290.95 -37.3021 2386.29 284.713 2500.39 302.764C2614.5 320.814 2382.5 1544.69 2252.24 2154.37C1455.86 2196.95 -69.0265 2129.2 202.478 1517.58C321.922 1248.51 511.395 1082.95 710.237 985.144C403.885 979.879 131.313 870.137 104.678 527.064Z"/></clipPath><linearGradient id="paint0_diamond_35_31" x1="0" y1="0" x2="500" y2="500" gradientUnits="userSpaceOnUse">
<stop stop-color="#232323"/>
<stop offset="0.216" stop-color="#3738C8"/>
<stop offset="1" stop-color="#38C871"/>
</linearGradient>
</defs>
</svg>
