<?xml version="1.0" encoding="UTF-8"?>
<svg xmlns="http://www.w3.org/2000/svg" version="1.1" xmlns:inkscape="http://www.inkscape.org/namespaces/inkscape" xmlns:sodipodi="http://sodipodi.sourceforge.net/DTD/sodipodi-0.dtd" xmlns:svg="http://www.w3.org/2000/svg" xmlns:xlink="http://www.w3.org/1999/xlink" viewBox="0 0 595.3 841.9">
  <!-- Generator: Adobe Illustrator 29.3.1, SVG Export Plug-In . SVG Version: 2.1.0 Build 151)  -->
  <defs>
    <style>
      .st0 {
        fill: url(#Gradiente_sem_nome_287);
      }

      .st1 {
        fill: #5f5fd3;
      }

      .st2 {
        fill: #37c8ab;
      }

      .st3 {
        fill: url(#Gradiente_sem_nome_2813);
      }

      .st4 {
        fill: url(#Gradiente_sem_nome_2815);
      }

      .st5 {
        fill: url(#Gradiente_sem_nome_288);
      }

      .st6 {
        fill: url(#Gradiente_sem_nome_2510);
      }

      .st7 {
        fill: url(#Gradiente_sem_nome_258);
      }

      .st8 {
        fill: url(#Gradiente_sem_nome_2816);
      }

      .st9 {
        fill: url(#Gradiente_sem_nome_2512);
      }

      .st10 {
        fill: url(#Gradiente_sem_nome_2515);
      }

      .st11 {
        fill: url(#Gradiente_sem_nome_2517);
      }

      .st12 {
        stroke-width: .3px;
      }

      .st12, .st13, .st14, .st15, .st16, .st17 {
        stroke-miterlimit: 3;
      }

      .st12, .st13, .st14, .st17 {
        stroke: #000;
      }

      .st18 {
        fill: #fff;
      }

      .st19 {
        fill: #87aade;
      }

      .st13 {
        stroke-width: .5px;
      }

      .st20 {
        fill: url(#Gradiente_sem_nome_25);
      }

      .st21 {
        fill: url(#Gradiente_sem_nome);
      }

      .st22 {
        fill: url(#Gradiente_sem_nome_2513);
      }

      .st23 {
        fill: url(#Gradiente_sem_nome_13);
      }

      .st24 {
        fill: url(#Gradiente_sem_nome_285);
      }

      .st14, .st15 {
        stroke-width: .8px;
      }

      .st14, .st15, .st16, .st17 {
        fill: none;
      }

      .st25 {
        fill: url(#Gradiente_sem_nome_251);
      }

      .st15, .st16 {
        stroke: #274294;
      }

      .st16 {
        stroke-width: .5px;
      }

      .st26 {
        fill: url(#Gradiente_sem_nome_284);
      }

      .st27 {
        fill: #5c3802;
      }

      .st28 {
        fill: url(#Gradiente_sem_nome_257);
      }

      .st29 {
        fill: url(#Gradiente_sem_nome_254);
      }

      .st30 {
        fill: url(#Gradiente_sem_nome_256);
      }

      .st31 {
        fill: url(#Gradiente_sem_nome_2810);
      }

      .st32 {
        fill: url(#Gradiente_sem_nome_2514);
      }

      .st33 {
        fill: url(#Gradiente_sem_nome_2814);
      }

      .st34 {
        fill: url(#Gradiente_sem_nome_252);
      }

      .st35 {
        fill: url(#Gradiente_sem_nome_255);
      }

      .st36 {
        fill: url(#Gradiente_sem_nome_2812);
      }

      .st37 {
        fill: url(#Gradiente_sem_nome_2516);
      }

      .st38 {
        fill: #80ffb3;
      }

      .st39 {
        fill: url(#Gradiente_sem_nome_289);
      }

      .st40 {
        fill: url(#Gradiente_sem_nome_286);
      }

      .st41 {
        fill: url(#Gradiente_sem_nome_2511);
      }

      .st42 {
        fill: url(#Gradiente_sem_nome_259);
      }

      .st43 {
        display: none;
      }

      .st17 {
        stroke-width: .2px;
      }

      .st44 {
        fill: url(#Gradiente_sem_nome_253);
      }

      .st45 {
        fill: url(#Gradiente_sem_nome_281);
      }

      .st46 {
        fill: url(#Gradiente_sem_nome_2811);
      }

      .st47 {
        fill: url(#Gradiente_sem_nome_2817);
      }

      .st48 {
        fill: url(#Gradiente_sem_nome_282);
      }

      .st49 {
        fill: url(#Gradiente_sem_nome_28);
      }

      .st50 {
        fill: url(#Gradiente_sem_nome_283);
      }
    </style>
    <linearGradient id="Gradiente_sem_nome" data-name="Gradiente sem nome" x1="-511.9" y1="725.9" x2="-462.8" y2="725.9" gradientTransform="translate(5232.8 7758.8) scale(10.1 -10.1)" gradientUnits="userSpaceOnUse">
      <stop offset="0" stop-color="#3737c8"/>
      <stop offset="1" stop-color="#37c871"/>
    </linearGradient>
    <linearGradient id="Gradiente_sem_nome_25" data-name="Gradiente sem nome 25" x1="51" y1="712" x2="371.2" y2="712" gradientUnits="userSpaceOnUse">
      <stop offset="0" stop-color="#80ffb3"/>
      <stop offset="1" stop-color="#2c9386"/>
    </linearGradient>
    <linearGradient id="Gradiente_sem_nome_251" data-name="Gradiente sem nome 25" y1="729.4" y2="729.4" xlink:href="#Gradiente_sem_nome_25"/>
    <linearGradient id="Gradiente_sem_nome_252" data-name="Gradiente sem nome 25" y1="724.9" y2="724.9" xlink:href="#Gradiente_sem_nome_25"/>
    <linearGradient id="Gradiente_sem_nome_253" data-name="Gradiente sem nome 25" y1="702.4" y2="702.4" xlink:href="#Gradiente_sem_nome_25"/>
    <linearGradient id="Gradiente_sem_nome_254" data-name="Gradiente sem nome 25" y1="724.9" y2="724.9" xlink:href="#Gradiente_sem_nome_25"/>
    <linearGradient id="Gradiente_sem_nome_255" data-name="Gradiente sem nome 25" y1="729.4" y2="729.4" xlink:href="#Gradiente_sem_nome_25"/>
    <linearGradient id="Gradiente_sem_nome_256" data-name="Gradiente sem nome 25" y1="715.9" y2="715.9" xlink:href="#Gradiente_sem_nome_25"/>
    <linearGradient id="Gradiente_sem_nome_257" data-name="Gradiente sem nome 25" y1="684.4" y2="684.4" xlink:href="#Gradiente_sem_nome_25"/>
    <linearGradient id="Gradiente_sem_nome_258" data-name="Gradiente sem nome 25" y1="693.4" y2="693.4" xlink:href="#Gradiente_sem_nome_25"/>
    <linearGradient id="Gradiente_sem_nome_259" data-name="Gradiente sem nome 25" y1="697.9" y2="697.9" xlink:href="#Gradiente_sem_nome_25"/>
    <linearGradient id="Gradiente_sem_nome_2510" data-name="Gradiente sem nome 25" y1="648.4" y2="648.4" xlink:href="#Gradiente_sem_nome_25"/>
    <linearGradient id="Gradiente_sem_nome_2511" data-name="Gradiente sem nome 25" y1="648.4" y2="648.4" xlink:href="#Gradiente_sem_nome_25"/>
    <linearGradient id="Gradiente_sem_nome_2512" data-name="Gradiente sem nome 25" y1="625.9" y2="625.9" xlink:href="#Gradiente_sem_nome_25"/>
    <linearGradient id="Gradiente_sem_nome_2513" data-name="Gradiente sem nome 25" y1="621.4" y2="621.4" xlink:href="#Gradiente_sem_nome_25"/>
    <linearGradient id="Gradiente_sem_nome_2514" data-name="Gradiente sem nome 25" y1="603.4" y2="603.4" xlink:href="#Gradiente_sem_nome_25"/>
    <linearGradient id="Gradiente_sem_nome_2515" data-name="Gradiente sem nome 25" y1="719.8" y2="719.8" xlink:href="#Gradiente_sem_nome_25"/>
    <linearGradient id="Gradiente_sem_nome_2516" data-name="Gradiente sem nome 25" y1="728.8" y2="728.8" xlink:href="#Gradiente_sem_nome_25"/>
    <linearGradient id="Gradiente_sem_nome_2517" data-name="Gradiente sem nome 25" y1="710.8" y2="710.8" xlink:href="#Gradiente_sem_nome_25"/>
    <linearGradient id="Gradiente_sem_nome_28" data-name="Gradiente sem nome 28" x1="602.5" y1="125.8" x2="210.3" y2="125.8" gradientTransform="translate(567 251.5) rotate(-180)" gradientUnits="userSpaceOnUse">
      <stop offset="0" stop-color="#87aade"/>
      <stop offset="1" stop-color="#375ea5"/>
    </linearGradient>
    <linearGradient id="Gradiente_sem_nome_281" data-name="Gradiente sem nome 28" x1="602.5" y1="108.4" x2="210.3" y2="108.4" gradientTransform="translate(603 216.8) rotate(-180)" xlink:href="#Gradiente_sem_nome_28"/>
    <linearGradient id="Gradiente_sem_nome_282" data-name="Gradiente sem nome 28" x1="602.5" y1="112.9" x2="210.3" y2="112.9" gradientTransform="translate(639 225.8) rotate(-180)" xlink:href="#Gradiente_sem_nome_28"/>
    <linearGradient id="Gradiente_sem_nome_283" data-name="Gradiente sem nome 28" x1="602.5" y1="135.4" x2="210.3" y2="135.4" gradientTransform="translate(675 270.8) rotate(-180)" xlink:href="#Gradiente_sem_nome_28"/>
    <linearGradient id="Gradiente_sem_nome_284" data-name="Gradiente sem nome 28" x1="602.5" y1="112.9" x2="210.3" y2="112.9" gradientTransform="translate(711 225.8) rotate(-180)" xlink:href="#Gradiente_sem_nome_28"/>
    <linearGradient id="Gradiente_sem_nome_285" data-name="Gradiente sem nome 28" x1="602.5" y1="108.4" x2="210.3" y2="108.4" gradientTransform="translate(747 216.8) rotate(-180)" xlink:href="#Gradiente_sem_nome_28"/>
    <linearGradient id="Gradiente_sem_nome_286" data-name="Gradiente sem nome 28" x1="602.5" y1="121.9" x2="210.3" y2="121.9" gradientTransform="translate(783 243.8) rotate(-180)" xlink:href="#Gradiente_sem_nome_28"/>
    <linearGradient id="Gradiente_sem_nome_287" data-name="Gradiente sem nome 28" x1="602.5" y1="153.4" x2="210.3" y2="153.4" gradientTransform="translate(819 306.8) rotate(-180)" xlink:href="#Gradiente_sem_nome_28"/>
    <linearGradient id="Gradiente_sem_nome_288" data-name="Gradiente sem nome 28" x1="602.5" y1="144.4" x2="210.3" y2="144.4" gradientTransform="translate(855 288.8) rotate(-180)" xlink:href="#Gradiente_sem_nome_28"/>
    <linearGradient id="Gradiente_sem_nome_289" data-name="Gradiente sem nome 28" x1="602.5" y1="139.9" x2="210.3" y2="139.9" gradientTransform="translate(891 279.8) rotate(-180)" xlink:href="#Gradiente_sem_nome_28"/>
    <linearGradient id="Gradiente_sem_nome_2810" data-name="Gradiente sem nome 28" x1="602.5" y1="189.4" x2="210.3" y2="189.4" gradientTransform="translate(927 378.8) rotate(-180)" xlink:href="#Gradiente_sem_nome_28"/>
    <linearGradient id="Gradiente_sem_nome_2811" data-name="Gradiente sem nome 28" x1="602.5" y1="189.4" x2="210.3" y2="189.4" gradientTransform="translate(963 378.8) rotate(-180)" xlink:href="#Gradiente_sem_nome_28"/>
    <linearGradient id="Gradiente_sem_nome_2812" data-name="Gradiente sem nome 28" x1="602.5" y1="211.9" x2="210.3" y2="211.9" gradientTransform="translate(999 423.8) rotate(-180)" xlink:href="#Gradiente_sem_nome_28"/>
    <linearGradient id="Gradiente_sem_nome_2813" data-name="Gradiente sem nome 28" x1="602.5" y1="216.4" x2="210.3" y2="216.4" gradientTransform="translate(1035 432.8) rotate(-180)" xlink:href="#Gradiente_sem_nome_28"/>
    <linearGradient id="Gradiente_sem_nome_2814" data-name="Gradiente sem nome 28" x1="602.5" y1="234.4" x2="210.3" y2="234.4" gradientTransform="translate(1071 468.8) rotate(-180)" xlink:href="#Gradiente_sem_nome_28"/>
    <linearGradient id="Gradiente_sem_nome_2815" data-name="Gradiente sem nome 28" x1="602.5" y1="118" x2="210.3" y2="118" gradientTransform="translate(531 236) rotate(-180)" xlink:href="#Gradiente_sem_nome_28"/>
    <linearGradient id="Gradiente_sem_nome_2816" data-name="Gradiente sem nome 28" x1="602.5" y1="109" x2="210.3" y2="109" gradientTransform="translate(495 218) rotate(-180)" xlink:href="#Gradiente_sem_nome_28"/>
    <linearGradient id="Gradiente_sem_nome_2817" data-name="Gradiente sem nome 28" y1="127" y2="127" gradientTransform="translate(459 254) rotate(-180)" xlink:href="#Gradiente_sem_nome_28"/>
    <linearGradient id="Gradiente_sem_nome_13" data-name="Gradiente sem nome 13" x1="543.7" y1="418.9" x2="92.3" y2="418.9" gradientUnits="userSpaceOnUse">
      <stop offset="0" stop-color="#37c871"/>
      <stop offset="1" stop-color="#3737c8"/>
    </linearGradient>
  </defs>
  <g id="Camada_3" class="st43">
    <g>
      <path class="st13" d="M271.9,489.5c-8.7,1.2-13.2,1.6-23.4,1.6-5.3,0-10.5,0-11.4,0-11.7-.7-25.1-2.8-35.7-5.6l-3.2-.8v-13.3l2-2.9c15.2-22.8,34.4-41.1,58-55.3,5.2-3.1,16.4-8.8,22.1-11.2,33.9-14.3,70.8-18,106.6-10.7,8.1,1.6,18.7,4.6,18.7,5.1s-5.9,10.6-9.8,16.2c-28.6,41.9-73.4,69.7-123.7,76.9Z"/>
      <path class="st13" d="M196.7,190v52.6l-4.1,6c-15.2,22.5-19.7,49.2-12.8,76.1,2.4,9.5,8.2,21.7,14.2,29.9l2.7,3.8v27h-114.4l-1.1-2.6c-13.4-30.9-17.9-64.8-13-98,7.8-53.1,39-100.2,85-128,11.4-6.9,29-15,38.9-17.8,1.8-.5,3.6-1.1,4-1.2.5-.2.7,10.5.7,52.3Z"/>
      <path class="st13" d="M198.1,385.3v-25.7l1.2,1.3c7.7,8.9,17.6,16.6,28.5,22.1l4.5,2.2h-34.1Z"/>
      <path class="st13" d="M355.3,492.2l3,.6h-20.4c-12.5,0-20.1,0-19.6-.2.5-.1,2.6-.5,4.8-.9,10.6-1.8,22.2-1.6,32.3.5Z"/>
      <path class="st13" d="M527.9,600c-5.8,29.2-16.4,53.4-33.9,76.9-7.1,9.5-25,27.4-34.8,34.7-13.7,10.2-30.4,19.5-44.5,24.7l-6,2.2v-98.8l3-4c11.5-15.3,18.5-36.4,18.5-55.8s-6.4-38.6-17.4-53.9l-4.2-5.8v-25.8l53.3.2,53.3.2,2.5,6.3c3.8,9.6,7.7,23.1,10,34.8,1.9,9.9,2.1,11.9,2.1,32.1,0,20.3,0,22.2-2.1,32.1Z"/>
      <path class="st13" d="M406.2,400.6l1-1.8v94.1h-19.7c0,0-19.7-.1-19.7-.1l-4.2-1.3c-8.5-2.6-15.8-3.6-25.6-3.6-6.8,0-10.4.3-16,1.2-3.6.6-9.6,2.1-12.5,3.1l-2,.7h-19.9s-19.9,0-19.9,0l5.3-.8c51.6-7.6,97.2-36.5,126-79.6,2.7-4.1,5.4-8.5,7.3-11.8Z"/>
      <path class="st13" d="M408.7,492.8v-95.5l4.4,1.6c6.6,2.4,22.8,10.3,30.2,14.7,27.4,16.4,52.4,43,66.9,71.3l4,7.9h-105.6Z"/>
      <path class="st13" d="M389.9,494.2h17v12c0,6.6,0,12-.2,12s-1.6-1.5-3.4-3.3c-6.9-7.1-15.2-13-24.8-17.8l-5.7-2.8h17Z"/>
      <path class="st13" d="M140.1,387h56.6v81.1l-3,4.9c-1.7,2.7-3.4,5.8-3.9,6.8-.5,1-1,1.9-1.2,1.9s-3.9-1.5-8.4-3.2c-38.7-15.5-70.9-43.8-91.2-80.1-3.3-5.9-5.6-10.5-5.6-11.2s25.5-.2,56.6-.2Z"/>
      <path class="st13" d="M198.9,465.2l-.8,1.1v-79.6h37.5l4.5,1.5c5.2,1.7,10.2,2.9,15.7,3.7,5.5.8,17.1,1,23,.4,7.1-.8,14.9-2.5,20.9-4.7l2.5-.9h10.8c10.2,0,10.7,0,8.5.4-45.5,7.5-85.6,31-114.3,66.8-1.6,2-4,5.2-5.3,6.9-1.3,1.8-2.6,3.7-3.1,4.3Z"/>
      <path id="path8" class="st12" d="M193.9,483.4c-1.2-.4-2.2-.7-2.3-.8-.1-.1,4.6-8.4,5-8.8,0,0,.1,2.2.1,5.1s0,5.2-.3,5.2c-.2,0-1.3-.3-2.5-.7h0Z"/>
    </g>
  </g>
  <g id="svg1" class="st43" inkscape:export-filename="Logo Inacabada.png">
    <rect id="rect345" class="st1" x="203" y="84.7" width="10.2" height="117"/>
    <rect id="rect345-3" class="st1" x="225.9" y="72.7" width="10.2" height="139.9"/>
    <rect id="rect345-9" class="st1" x="248.8" y="67.7" width="10.2" height="117"/>
    <rect id="rect345-5" class="st1" x="272.1" y="61.2" width="10.2" height="141.4"/>
    <rect id="rect345-7" class="st1" x="295.2" y="0" width="10.2" height="277.6"/>
    <rect id="rect345-0" class="st1" x="318.3" y="39.5" width="10.2" height="180.8"/>
    <rect id="rect345-6" class="st19" x="340.1" y="73.2" width="10.2" height="117"/>
    <rect id="rect345-8" class="st19" x="360.2" y="80.9" width="10.2" height="117"/>
    <rect id="rect345-2" class="st19" x="384.5" y="92.7" width="10.2" height="154.9"/>
    <rect id="rect345-90" class="st19" x="405.4" y="93.1" width="10.2" height="136.1"/>
    <rect id="rect345-58" class="st19" x="428.5" y="93.8" width="10.2" height="127.9"/>
    <rect id="rect345-4" class="st19" x="446" y="133.2" width="10.2" height="140.3"/>
    <rect id="rect345-62" class="st19" x="470.6" y="126.3" width="10.2" height="159.8"/>
    <rect id="rect345-92" class="st19" x="490.3" y="156.7" width="10.2" height="148.2"/>
    <rect id="rect345-82" class="st19" x="513.8" y="172.2" width="10.2" height="117"/>
    <rect id="rect345-76" class="st19" x="533.9" y="222.7" width="10.2" height="62.8"/>
    <rect id="rect345-20" class="st2" x="393.2" y="640.2" width="10.2" height="117"/>
    <rect id="rect345-3-0" class="st2" x="370.3" y="629.3" width="10.2" height="139.9"/>
    <rect id="rect345-9-3" class="st2" x="347.4" y="657.2" width="10.2" height="117"/>
    <rect id="rect345-5-9" class="st2" x="324.1" y="639.3" width="10.2" height="141.4"/>
    <rect id="rect345-7-1" class="st2" x="301" y="564.3" width="10.2" height="277.6"/>
    <rect id="rect345-0-8" class="st2" x="277.9" y="621.6" width="10.2" height="180.8"/>
    <rect id="rect345-6-1" class="st2" x="256.1" y="651.7" width="10.2" height="117"/>
    <rect id="rect345-8-9" class="st2" x="236" y="644.1" width="10.2" height="117"/>
    <rect id="rect345-2-5" class="st2" x="211.7" y="594.2" width="10.2" height="154.9"/>
    <rect id="rect345-90-3" class="st38" x="190.8" y="612.6" width="10.2" height="136.1"/>
    <rect id="rect345-58-2" class="st38" x="167.7" y="620.2" width="10.2" height="127.9"/>
    <rect id="rect345-4-5" class="st38" x="150.2" y="568.4" width="10.2" height="140.3"/>
    <rect id="rect345-62-2" class="st38" x="125.6" y="555.8" width="10.2" height="159.8"/>
    <rect id="rect345-92-5" class="st38" x="105.9" y="537" width="10.2" height="148.2"/>
    <rect id="rect345-82-8" class="st38" x="82.4" y="552.7" width="10.2" height="117"/>
    <rect id="rect345-76-6" class="st38" x="62.3" y="556.3" width="10.2" height="62.8"/>
    <path id="path346" class="st21" d="M57.6,296.7c1.2,96.1,46.7,155.9,136.2,179.8l167.6-.7s114.3,18.8,62.1,135.8l7.9,137.6s14.2-7.9,32.7-23.2c36.5-30.3,101.9-112.1,88.4-199-28.7-185.7-190.8-188.1-317.3-168.5,0,0-108.5-36.2-41.5-143.6l-7.3-124.9c-112.5,61.1-120.9,99.5-128.9,206.8Z" sodipodi:nodetypes="cccccsscccc"/>
  </g>
  <g id="Camada_2" class="st43">
    <rect class="st27" width="595.3" height="841.9"/>
  </g>
  <g id="Camada_7">
    <rect id="rect345-3-01" data-name="rect345-3-0" class="st20" x="306" y="643.9" width="9" height="136.3"/>
    <rect id="rect345-9-31" data-name="rect345-9-3" class="st25" x="288" y="670.9" width="9" height="117"/>
    <rect id="rect345-5-91" data-name="rect345-5-9" class="st34" x="270" y="652.9" width="9" height="144"/>
    <rect id="rect345-7-11" data-name="rect345-7-1" class="st44" x="252" y="571.9" width="9" height="261"/>
    <rect id="rect345-0-81" data-name="rect345-0-8" class="st29" x="234" y="634.9" width="9" height="180"/>
    <rect id="rect345-6-11" data-name="rect345-6-1" class="st35" x="216" y="670.9" width="9" height="117"/>
    <rect id="rect345-8-91" data-name="rect345-8-9" class="st30" x="198" y="661.9" width="9" height="108"/>
    <rect id="rect345-2-51" data-name="rect345-2-5" class="st28" x="180" y="607.9" width="9" height="153"/>
    <rect id="rect345-90-31" data-name="rect345-90-3" class="st7" x="162" y="625.9" width="9" height="135"/>
    <rect id="rect345-58-21" data-name="rect345-58-2" class="st42" x="144" y="634.9" width="9" height="126"/>
    <rect id="rect345-4-51" data-name="rect345-4-5" class="st6" x="126" y="580.9" width="9" height="135"/>
    <rect id="rect345-62-21" data-name="rect345-62-2" class="st41" x="108" y="571.9" width="9" height="153"/>
    <rect id="rect345-92-51" data-name="rect345-92-5" class="st9" x="90" y="553.9" width="9" height="144"/>
    <rect id="rect345-82-81" data-name="rect345-82-8" class="st22" x="72" y="562.9" width="9" height="117"/>
    <rect id="rect345-76-61" data-name="rect345-76-6" class="st32" x="54" y="571.9" width="9" height="63"/>
    <rect id="rect345-3-02" data-name="rect345-3-0" class="st10" x="324" y="651.6" width="9" height="136.3"/>
    <rect id="rect345-3-03" data-name="rect345-3-0" class="st37" x="342" y="660.6" width="9" height="136.3"/>
    <rect id="rect345-3-04" data-name="rect345-3-0" class="st11" x="360" y="642.6" width="9" height="136.3"/>
    <rect id="rect345-3-05" data-name="rect345-3-0" class="st49" x="279" y="57.6" width="9" height="136.3" transform="translate(567 251.5) rotate(180)"/>
    <rect id="rect345-9-32" data-name="rect345-9-3" class="st45" x="297" y="49.9" width="9" height="117" transform="translate(603 216.8) rotate(180)"/>
    <rect id="rect345-5-92" data-name="rect345-5-9" class="st48" x="315" y="40.9" width="9" height="144" transform="translate(639 225.8) rotate(180)"/>
    <rect id="rect345-7-12" data-name="rect345-7-1" class="st50" x="333" y="4.9" width="9" height="261" transform="translate(675 270.8) rotate(180)"/>
    <rect id="rect345-0-82" data-name="rect345-0-8" class="st26" x="351" y="22.9" width="9" height="180" transform="translate(711 225.8) rotate(180)"/>
    <rect id="rect345-6-12" data-name="rect345-6-1" class="st24" x="369" y="49.9" width="9" height="117" transform="translate(747 216.8) rotate(180)"/>
    <rect id="rect345-8-92" data-name="rect345-8-9" class="st40" x="387" y="67.9" width="9" height="108" transform="translate(783 243.8) rotate(180)"/>
    <rect id="rect345-2-52" data-name="rect345-2-5" class="st0" x="405" y="76.9" width="9" height="153" transform="translate(819 306.8) rotate(180)"/>
    <rect id="rect345-90-32" data-name="rect345-90-3" class="st5" x="423" y="76.9" width="9" height="135" transform="translate(855 288.8) rotate(180)"/>
    <rect id="rect345-58-22" data-name="rect345-58-2" class="st39" x="441" y="76.9" width="9" height="126" transform="translate(891 279.8) rotate(180)"/>
    <rect id="rect345-4-52" data-name="rect345-4-5" class="st31" x="459" y="121.9" width="9" height="135" transform="translate(927 378.8) rotate(180)"/>
    <rect id="rect345-62-22" data-name="rect345-62-2" class="st46" x="477" y="112.9" width="9" height="153" transform="translate(963 378.8) rotate(180)"/>
    <rect id="rect345-92-52" data-name="rect345-92-5" class="st36" x="495" y="139.9" width="9" height="144" transform="translate(999 423.8) rotate(180)"/>
    <rect id="rect345-82-82" data-name="rect345-82-8" class="st3" x="513" y="157.9" width="9" height="117" transform="translate(1035 432.8) rotate(180)"/>
    <rect id="rect345-76-62" data-name="rect345-76-6" class="st33" x="531" y="202.9" width="9" height="63" transform="translate(1071 468.8) rotate(180)"/>
    <rect id="rect345-3-06" data-name="rect345-3-0" class="st4" x="261" y="49.9" width="9" height="136.3" transform="translate(531 236) rotate(180)"/>
    <rect id="rect345-3-07" data-name="rect345-3-0" class="st8" x="243" y="40.9" width="9" height="136.3" transform="translate(495 218) rotate(180)"/>
    <rect id="rect345-3-08" data-name="rect345-3-0" class="st47" x="225" y="58.9" width="9" height="136.3" transform="translate(459 254) rotate(180)"/>
    <path class="st23" d="M558,571.9c0,107-77.8,195.9-180,213v-149.4c26.7-13.3,45-40.8,45-72.6s-18.3-59.3-45-72.6c-10.8-5.4-23.1-8.4-36-8.4h-90c-18.6,0-36.7-2.4-54-6.8-14.2-3.7-27.9-8.7-40.8-15.1-44.7-21.9-80.8-58.8-101.6-104.1-12.6-27.4-19.6-57.9-19.6-90,0-100.6,68.8-185.2,162-209.2,5.9-1.5,11.9-2.8,18-3.8v149.4c-6.5,3.2-12.6,7.4-18,12.2-16.6,14.8-27,36.4-27,60.4s10.4,45.5,27,60.4c14.3,12.8,33.2,20.6,54,20.6h90c12.3,0,24.3,1,36,3,20.8,3.5,40.5,9.9,58.8,18.9,44.7,21.9,80.8,58.8,101.6,104.1,12.6,27.4,19.6,57.9,19.6,90Z"/>
  </g>
  <g id="Camada_8" class="st43">
    <image width="1890" height="1134" transform="translate(-382.5 -917.6) scale(.8)" xlink:href="Identidade VIsual.png"/>
  </g>
  <g id="Camada_5" class="st43">
    <line class="st17" x1="63" y1="778.9" x2="63" y2="49.9"/>
    <line class="st17" x1="531" y1="805.9" x2="531" y2="76.9"/>
    <line class="st17" x1="-108" y1="751.9" x2="621" y2="751.9"/>
    <line class="st17" x1="-19.2" y1="84.7" x2="709.8" y2="84.7"/>
  </g>
  <g id="Camada_4" class="st43">
    <rect class="st18" x="-549" y="-85.1" width="513" height="504"/>
    <circle class="st16" cx="-288" cy="175.9" r="27"/>
    <circle class="st16" cx="-288" cy="175.9" r="27"/>
    <circle class="st16" cx="-288" cy="175.9" r="54"/>
    <circle class="st16" cx="-288" cy="175.9" r="81"/>
    <circle class="st16" cx="-288" cy="175.9" r="135"/>
    <circle class="st16" cx="-288" cy="175.9" r="216"/>
  </g>
  <g id="Camada_6" class="st43">
    <path class="st15" d="M333,274.9c0,44.7-36.3,81-81,81s-39.7-7.8-54-20.6c-16.6-14.8-27-36.4-27-60.4s10.4-45.5,27-60.4c14.3-12.8,33.2-20.6,54-20.6,44.7,0,81,36.3,81,81Z"/>
    <path class="st15" d="M423,562.9c0,31.8-18.3,59.3-45,72.6-10.8,5.4-23.1,8.4-36,8.4-44.7,0-81-36.3-81-81s36.3-81,81-81,25.2,3,36,8.4c26.7,13.2,45,40.8,45,72.6Z"/>
    <path class="st15" d="M423,562.9c0,31.8-18.3,59.3-45,72.6v149.4c-11.7,2-23.7,3-36,3-119.3,0-216-96.7-216-216s7-62.6,19.6-90c3.5-7.5,7.3-14.8,11.6-21.9,12.9,6.3,26.6,11.4,40.8,15.1,17.3,4.5,35.4,6.8,54,6.8h90c12.9,0,25.2,3,36,8.4,26.7,13.2,45,40.8,45,72.6Z"/>
    <path class="st15" d="M468,265.9c0,32.1-7,62.6-19.6,90-3.5,7.5-7.3,14.8-11.6,21.9-18.3-9-38-15.4-58.8-18.9-11.7-2-23.7-3-36-3h-90c-20.8,0-39.7-7.8-54-20.6-16.6-14.8-27-36.4-27-60.4s10.4-45.5,27-60.4V56.7c17.3-4.5,35.4-6.8,54-6.8,47,0,90.5,15,126,40.5,54.5,39.2,90,103.2,90,175.5Z"/>
    <line class="st14" x1="198" y1="56.7" x2="198" y2="-31.1"/>
    <line class="st14" x1="216" y1="211.9" x2="216" y2="49.9"/>
    <polyline class="st14" points="198 475.1 198 481.9 198 697.9"/>
    <polyline class="st14" points="378 -13.1 378 90.4 378 355.9 378 358.9"/>
    <line class="st14" x1="378" y1="635.5" x2="378" y2="490.3"/>
    <line class="st14" x1="378" y1="823.9" x2="378" y2="784.9"/>
    <line class="st14" x1="630" y1="481.9" x2="538.4" y2="481.9"/>
    <polyline class="st14" points="252 481.9 198 481.9 145.6 481.9 0 481.9"/>
    <polyline class="st14" points="621 355.9 448.4 355.9 378 355.9 342 355.9"/>
    <line class="st14" x1="55.6" y1="355.9" x2="-9" y2="355.9"/>
  </g>
</svg>